Coordinates
version=1
nRows=17
nColumns=24
inDegrees=yes

Units are S.I. units (second, meters, Newtons, ...)
Angles are in degrees.

endheader
time	pelvis_tilt	pelvis_list	pelvis_rotation	pelvis_tx	pelvis_ty	pelvis_tz	hip_flexion_r	hip_adduction_r	hip_rotation_r	knee_angle_r	ankle_angle_r	subtalar_angle_r	mtp_angle_r	hip_flexion_l	hip_adduction_l	hip_rotation_l	knee_angle_l	ankle_angle_l	subtalar_angle_l	mtp_angle_l	lumbar_extension	lumbar_bending	lumbar_rotation
      0.75816667	      0.47288341	     -3.13308131	      7.19458269	     -0.50901458	      0.91280862	      0.32064380	     10.74126400	     10.43393007	     -1.85886580	    -19.49987874	      7.88241155	     -4.93118413	      4.63904575	     17.77426416	     -8.60287015	     -4.68681679	    -71.37763634	     -0.33821674	     -6.95686297	      4.60519411	     -4.30351945	      5.11786625	     -1.16944161
      0.76233333	      0.47318838	     -2.94840866	      6.95478023	     -0.50367057	      0.91398838	      0.32104858	     10.07203039	     10.31432480	     -1.64500156	    -18.98738631	      7.90212014	     -4.74937763	      4.67123838	     18.27326694	     -8.36592524	     -4.97994486	    -70.80498444	      0.09800866	     -7.25556031	      4.53218324	     -4.29636109	      4.89318427	     -0.97502949
      0.76650000	      0.52031885	     -2.75168192	      6.69819861	     -0.49835564	      0.91522975	      0.32145835	      9.33903304	     10.18446064	     -1.39215333	    -18.44807347	      7.94915797	     -4.51869494	      4.79876547	     18.69295334	     -8.11139104	     -5.26837295	    -70.14915727	      0.44272332	     -7.53996963	      4.24551411	     -4.39905176	      4.69111092	     -0.41953429
      0.77066667	      0.54218366	     -2.54328408	      6.42202754	     -0.49307292	      0.91638548	      0.32189258	      8.65276255	     10.03537950	     -1.12277945	    -17.94781408	      7.98661781	     -4.34819431	      4.84292085	     19.11890435	     -7.84617361	     -5.57894097	    -69.43414761	      0.84813500	     -7.76581932	      4.15414209	     -4.46923634	      4.46098203	     -0.29198481
      0.77483333	      0.59564626	     -2.36230268	      6.13976193	     -0.48773759	      0.91753997	      0.32234797	      7.91531130	      9.91179670	     -0.88843914	    -17.40126013	      8.00442748	     -4.12688685	      5.00974257	     19.49307383	     -7.63543573	     -5.91466111	    -68.66641056	      1.21670506	     -7.94628408	      3.80880923	     -4.54453328	      4.25451102	      0.19691476
      0.77900000	      0.65706563	     -2.16411006	      5.85430546	     -0.48245500	      0.91866815	      0.32280072	      7.17481907	      9.76539385	     -0.62786093	    -16.86478963	      8.05677017	     -3.92616861	      5.08017621	     19.84079022	     -7.39637561	     -6.23912105	    -67.83191982	      1.55508090	     -8.09056546	      3.67255920	     -4.66061537	      4.01460839	      0.37605587
      0.78316667	      0.71581654	     -1.97721614	      5.54466132	     -0.47716786	      0.91973637	      0.32327820	      6.44337556	      9.62367039	     -0.36662878	    -16.33402678	      8.07892710	     -3.70982280	      5.15688488	     20.16972416	     -7.18278334	     -6.59083119	    -66.94413549	      1.90333052	     -8.18078014	      3.53003333	     -4.75921208	      3.80343991	      0.68605401
      0.78733333	      0.77533745	     -1.79513893	      5.22538154	     -0.47190050	      0.92074630	      0.32376287	      5.71795312	      9.47960435	     -0.10980402	    -15.80910789	      8.10292801	     -3.48370995	      5.23436192	     20.48310876	     -6.97876053	     -6.95089690	    -66.00502933	      2.23673135	     -8.23292645	      3.39323527	     -4.85710669	      3.59608826	      0.99723001
      0.79150000	      0.83772219	     -1.62562600	      4.89576880	     -0.46664075	      0.92169863	      0.32425484	      4.99192530	      9.34239136	      0.15314042	    -15.28202215	      8.11632264	     -3.25626042	      5.32404435	     20.77780895	     -6.79230562	     -7.31487676	    -65.01688686	      2.56103840	     -8.24336894	      3.23938617	     -4.96021776	      3.40783783	      1.33331906
      0.79566667	      0.90204839	     -1.45713594	      4.55546070	     -0.46140341	      0.92259085	      0.32475065	      4.27288840	      9.19891506	      0.41521711	    -14.76719606	      8.14006763	     -3.02850249	      5.40573277	     21.05388846	     -6.61040170	     -7.68758564	    -63.97683417	      2.86479495	     -8.21686784	      3.10676122	     -5.06376283	      3.21602256	      1.63806161
      0.79983333	      0.97136395	     -1.29897053	      4.20587921	     -0.45616421	      0.92342234	      0.32525866	      3.55288746	      9.05905865	      0.67161704	    -14.25638103	      8.16993258	     -2.80064921	      5.48098414	     21.30793456	     -6.44888285	     -8.07355446	    -62.89025216	      3.14910721	     -8.15648659	      2.98911752	     -5.16077841	      3.03103839	      1.94336986
      0.80400000	      1.03549743	     -1.15753264	      3.84925447	     -0.45096742	      0.92417270	      0.32576545	      2.84599739	      8.92980210	      0.94466969	    -13.74813168	      8.18022317	     -2.55789792	      5.57675859	     21.56017861	     -6.30152677	     -8.44562592	    -61.76504716	      3.42490520	     -8.06423188	      2.84292976	     -5.27432948	      2.87524934	      2.30676851
      0.80816667	      1.10774306	     -1.01728143	      3.48775934	     -0.44575666	      0.92486771	      0.32627015	      2.13698292	      8.79303360	      1.19366287	    -13.25338632	      8.22816060	     -2.33480525	      5.65493177	     21.78313756	     -6.16495071	     -8.83706516	    -60.58869682	      3.66160142	     -7.95069806	      2.72902999	     -5.36576296	      2.71081562	      2.60215909
      0.81233333	      1.14448331	     -0.88263559	      3.10260080	     -0.44059454	      0.92544042	      0.32678048	      1.49448257	      8.65096572	      1.46435415	    -12.80638671	      8.22964407	     -2.09808950	      5.70457880	     22.03000335	     -6.03113769	     -9.23246606	    -59.36782335	      3.87888054	     -7.81671058	      2.66047178	     -5.43748807	      2.55854821	      2.82653032
      0.81650000	      1.22162154	     -0.76893129	      2.73126699	     -0.43541578	      0.92599473	      0.32727813	      0.79264763	      8.52719978	      1.72122701	    -12.32302763	      8.27717610	     -1.85503562	      5.76177968	     22.22258616	     -5.92381866	     -9.61423996	    -58.11098273	      4.07379296	     -7.66158672	      2.58478033	     -5.54824173	      2.42899754	      3.14784022
      0.82066667	      1.30284391	     -0.68911496	      2.38016829	     -0.43023584	      0.92645815	      0.32774985	      0.07894927	      8.43410029	      1.96724989	    -11.81728204	      8.36099564	     -1.61718225	      5.85184936	     22.41201734	     -5.85009899	     -9.96498461	    -56.83765777	      4.25720775	     -7.48016704	      2.46718925	     -5.65669488	      2.33801292	      3.58508702
      0.82483333	      1.33181829	     -0.59309671	      1.98717984	     -0.42511240	      0.92679575	      0.32823990	     -0.53249701	      8.31030645	      2.23387878	    -11.39828874	      8.38837319	     -1.38597331	      5.90986592	     22.63035806	     -5.76015621	    -10.34915911	    -55.50186198	      4.38834695	     -7.30429830	      2.39323386	     -5.71322998	      2.22913635	      3.82678192
